<svg width="44" height="44" viewBox="0 0 44 44" fill="none" xmlns="http://www.w3.org/2000/svg">
<path fill-rule="evenodd" clip-rule="evenodd" d="M22.0021 26.4469C17.8308 26.4469 13.8999 24.4156 11.4808 21.014C11.2861 20.7432 11.3524 20.3674 11.6217 20.1752C11.8909 19.9826 12.2678 20.0459 12.4584 20.3169C14.6537 23.4021 18.2202 25.244 22.0021 25.244C25.291 25.244 28.3563 23.8966 30.5682 21.5123L30.3859 21.5599C30.0628 21.644 29.7357 21.4518 29.6486 21.1304C29.5658 20.809 29.7604 20.48 30.0794 20.3964L32.0097 19.8911C32.1961 19.843 32.3908 19.8849 32.54 20.0042C32.6891 20.1235 32.7719 20.3062 32.7637 20.4967L32.6849 22.4908C32.6725 22.823 32.395 23.0831 32.0636 23.0686C31.7322 23.0558 31.4713 22.7758 31.4837 22.4439L31.492 22.2869C29.0522 24.9442 25.6514 26.4469 22.0021 26.4469H22.0021Z" fill="#7242BC"/>
<path fill-rule="evenodd" clip-rule="evenodd" d="M11.837 7.22166C11.7045 7.22166 11.5678 7.17569 11.4601 7.08872C11.311 6.96944 11.2282 6.78673 11.2364 6.59621L11.3151 4.60212C11.3276 4.27031 11.6051 4.01104 11.9406 4.0247C12.2719 4.03751 12.5287 4.31715 12.5164 4.64938L12.5122 4.80639C14.952 2.14946 18.3486 0.64624 22.002 0.64624C26.1692 0.64624 30.1042 2.6772 32.5192 6.07921C32.7138 6.35008 32.6517 6.7258 32.3783 6.91796C32.1091 7.11055 31.7322 7.04721 31.5416 6.77633C29.3463 3.69118 25.7798 1.84919 22.002 1.84919C18.709 1.84919 15.6437 3.19704 13.4318 5.58094L13.6182 5.5329C13.9371 5.44886 14.2643 5.64144 14.3513 5.96242C14.4341 6.28383 14.2436 6.61271 13.9205 6.69684L11.9902 7.20215C11.9405 7.21496 11.8867 7.22158 11.8369 7.22158L11.837 7.22166Z" fill="#7242BC"/>
<path fill-rule="evenodd" clip-rule="evenodd" d="M27.9727 12.5522L26.7717 12.3154L26.2442 11.0439L26.9265 10.0265L25.5201 8.62018L24.5028 9.30244L23.2312 8.77504L22.9945 7.57397H21.0056L20.7688 8.77504L19.4972 9.30244L18.4798 8.62018L17.0735 10.0265L17.7558 11.0439L17.2284 12.3154L16.0273 12.5522V14.5411L17.2284 14.7779L17.7558 16.0494L17.0735 17.0668L18.4798 18.4732L19.4972 17.7908L20.7688 18.3183L21.0056 19.5193H22.9945L23.2312 18.3183L24.5028 17.7908L25.5201 18.4732L26.9265 17.0668L26.2442 16.0494L26.7717 14.7779L27.9727 14.5411V12.5522Z" fill="#0059AC"/>
<path fill-rule="evenodd" clip-rule="evenodd" d="M27.3921 14.5411L26.1911 14.7779L25.6636 16.0494L26.3459 17.0668L25.1726 18.2401L24.2809 17.6421L22.6506 18.3183L22.4139 19.5193H21.0056L20.7688 18.3183L19.1385 17.6421L18.2469 18.2401L17.0735 17.0668L17.7558 16.0494L17.2284 14.7779L16.0273 14.5411V12.5522L17.2284 12.3154L17.7558 11.0439L17.0735 10.0265L18.2469 8.85324L19.1385 9.45119L20.7688 8.77504L21.0056 7.57397H22.4139L22.6506 8.77504L24.2809 9.45128L25.1726 8.85324L26.3459 10.0265L25.6636 11.0439L26.1911 12.3154L27.3921 12.5522V14.5411Z" fill="#29BFFD"/>
<path d="M21.5293 16.5974C23.2142 16.5974 24.5801 15.2315 24.5801 13.5466C24.5801 11.8617 23.2142 10.4958 21.5293 10.4958C19.8444 10.4958 18.4785 11.8617 18.4785 13.5466C18.4785 15.2315 19.8444 16.5974 21.5293 16.5974Z" fill="#7986BF"/>
<path fill-rule="evenodd" clip-rule="evenodd" d="M22 16.5974C23.6803 16.5974 25.0507 15.227 25.0507 13.5466C25.0507 11.8663 23.6803 10.4958 22 10.4958C20.3197 10.4958 18.9492 11.8663 18.9492 13.5466C18.9492 15.227 20.3197 16.5974 22 16.5974Z" fill="#F3F3FF"/>
<path fill-rule="evenodd" clip-rule="evenodd" d="M34.3647 13.6631C36.9757 13.6631 39.1193 15.6623 39.3491 18.2135H29.3804C29.6103 15.6623 31.7538 13.6631 34.3647 13.6631Z" fill="#0059AC"/>
<path fill-rule="evenodd" clip-rule="evenodd" d="M37.9607 18.2136H29.3804C29.5963 15.8162 31.5024 13.9064 33.8983 13.6848C36.0373 14.0948 37.701 15.9285 37.9607 18.2136Z" fill="#29BFFD"/>
<path d="M34.4747 13.6532C35.7885 13.5808 36.7949 12.457 36.7225 11.1431C36.6501 9.82926 35.5263 8.82285 34.2125 8.89526C32.8986 8.96767 31.8922 10.0915 31.9646 11.4053C32.037 12.7192 33.1608 13.7256 34.4747 13.6532Z" fill="#FDAD00"/>
<path fill-rule="evenodd" clip-rule="evenodd" d="M33.8823 13.5981C32.7972 13.375 31.9812 12.4144 31.9812 11.2633C31.9812 10.1122 32.7972 9.15156 33.8823 8.92847C34.9674 9.15156 35.7835 10.1122 35.7835 11.2633C35.7835 12.4144 34.9674 13.375 33.8823 13.5981Z" fill="#FFE420"/>
<path fill-rule="evenodd" clip-rule="evenodd" d="M9.63525 13.6631C12.2462 13.6631 14.3898 15.6623 14.6196 18.2135H4.65088C4.88076 15.6623 7.0243 13.6631 9.63525 13.6631Z" fill="#067741"/>
<path fill-rule="evenodd" clip-rule="evenodd" d="M13.2312 18.2136H4.65088C4.86684 15.8162 6.77302 13.9064 9.16879 13.6848C11.3079 14.0948 12.9716 15.9285 13.2313 18.2136H13.2312Z" fill="#CEF72A"/>
<path d="M9.75666 13.6417C11.0705 13.5693 12.0769 12.4455 12.0045 11.1316C11.9321 9.81778 10.8083 8.81138 9.49445 8.88379C8.18058 8.95619 7.17418 10.08 7.24658 11.3939C7.31899 12.7077 8.44279 13.7141 9.75666 13.6417Z" fill="#FDAD00"/>
<path fill-rule="evenodd" clip-rule="evenodd" d="M9.15257 13.5981C8.06744 13.375 7.25146 12.4144 7.25146 11.2633C7.25146 10.1122 8.06744 9.15156 9.15257 8.92847C10.2377 9.15156 11.0538 10.1122 11.0538 11.2633C11.0538 12.4144 10.2377 13.375 9.15257 13.5981Z" fill="#FFE420"/>
<path fill-rule="evenodd" clip-rule="evenodd" d="M8.81004 28.3154C9.05858 27.3387 10.2957 27.024 10.9809 27.7629C16.8327 33.6148 21.6014 28.8668 20.0355 41.3802L14.1022 41.5203C14.1131 38.9291 12.6394 37.3353 10.8466 35.7447C9.86862 34.8772 8.63422 33.9093 7.64628 32.8766C6.26587 31.4338 5.78384 30.1855 5.20093 28.2893C4.53723 26.1305 3.57344 22.1887 3.70802 21.1983C3.90078 19.7809 5.44955 19.8133 5.84434 21.2866C6.30866 23.0194 7.8301 27.3153 8.91059 29.2316C8.7822 28.9066 8.73863 28.5959 8.81004 28.3154Z" fill="#AB6B43"/>
<path fill-rule="evenodd" clip-rule="evenodd" d="M8.81 28.3155C9.05853 27.3388 10.2957 27.024 10.9809 27.763C16.8327 33.6148 21.6014 28.8669 20.0355 41.3803L15.4555 41.4884C15.4368 38.8034 13.8954 37.1394 12.0238 35.479C10.9929 34.5645 9.69154 33.544 8.65007 32.4555C7.1948 30.9345 6.68674 29.6185 6.0722 27.6195C5.37946 25.3661 4.37665 21.2706 4.49464 20.1765C5.00778 20.0683 5.61707 20.4389 5.84421 21.2867C6.30853 23.0194 7.82996 27.3154 8.91046 29.2317C8.78207 28.9067 8.7385 28.5959 8.80991 28.3154L8.81 28.3155Z" fill="#DDAB8B"/>
<path fill-rule="evenodd" clip-rule="evenodd" d="M8.81011 28.3154C9.00398 27.5535 9.79942 27.1944 10.4652 27.4241C9.78619 27.455 9.49967 28.1763 9.82305 28.8693C10.002 29.253 10.3327 29.6803 10.7345 30.1024C11.7841 31.2045 13.2742 32.1899 14.0184 32.4247C14.2807 32.5075 14.4261 32.7873 14.3433 33.0496C14.2604 33.3118 13.9806 33.4573 13.7184 33.3744C12.8585 33.1032 11.1735 32.0034 10.0161 30.7879C9.538 30.2858 9.14251 29.7543 8.91065 29.2317C8.78226 28.9067 8.73869 28.596 8.81011 28.3155V28.3154Z" fill="#AB6B43"/>
<path fill-rule="evenodd" clip-rule="evenodd" d="M21.1733 43.3535V40.6714C21.1733 40.1449 20.7425 39.7141 20.2161 39.7141H13.8397C13.3131 39.7141 12.8824 40.1449 12.8823 40.6714V43.3535H21.1733Z" fill="#2A93FC"/>
<path fill-rule="evenodd" clip-rule="evenodd" d="M21.1732 43.3535V40.6714C21.1732 40.1451 20.7429 39.7145 20.2167 39.7141H15.1944C14.668 39.7141 14.2371 40.1449 14.2371 40.6715V43.3536H21.1732V43.3535Z" fill="#4EB1FC"/>
<path fill-rule="evenodd" clip-rule="evenodd" d="M35.1899 28.3154C34.9414 27.3387 33.7042 27.024 33.019 27.7629C27.1672 33.6148 22.3985 28.8668 23.9644 41.3802L29.8978 41.5203C29.8869 38.9291 31.3605 37.3353 33.1534 35.7447C34.1313 34.8772 35.3657 33.9093 36.3537 32.8766C37.7341 31.4338 38.2161 30.1855 38.799 28.2893C39.4627 26.1305 40.4266 22.1887 40.292 21.1983C40.0993 19.7809 38.5505 19.8133 38.1557 21.2866C37.6914 23.0194 36.1699 27.3153 35.0894 29.2316C35.2178 28.9066 35.2613 28.5958 35.19 28.3153L35.1899 28.3154Z" fill="#AB6B43"/>
<path fill-rule="evenodd" clip-rule="evenodd" d="M35.1899 28.3155C34.9414 27.3388 33.7042 27.024 33.019 27.763C27.1672 33.6148 22.3985 28.8669 23.9644 41.3803L28.5444 41.4884C28.5631 38.8034 30.1045 37.1394 31.9761 35.479C33.007 34.5645 34.3084 33.544 35.3498 32.4555C36.8051 30.9345 37.3132 29.6185 37.9277 27.6195C38.6204 25.3661 39.6232 21.2706 39.5053 20.1765C38.9921 20.0683 38.3828 20.4389 38.1556 21.2867C37.6913 23.0194 36.1698 27.3154 35.0893 29.2317C35.2177 28.9067 35.2612 28.596 35.1899 28.3155Z" fill="#DDAB8B"/>
<path fill-rule="evenodd" clip-rule="evenodd" d="M35.19 28.3154C34.9961 27.5535 34.2007 27.1944 33.5349 27.4241C34.2139 27.455 34.5004 28.1763 34.177 28.8693C33.9981 29.253 33.6673 29.6803 33.2656 30.1024C32.216 31.2045 30.7259 32.1899 29.9817 32.4247C29.7194 32.5075 29.574 32.7873 29.6568 33.0496C29.7397 33.3118 30.0195 33.4573 30.2817 33.3744C31.1416 33.1032 32.8265 32.0034 33.984 30.7879C34.4621 30.2858 34.8576 29.7543 35.0894 29.2317C35.2178 28.9067 35.2613 28.596 35.19 28.3155V28.3154Z" fill="#AB6B43"/>
<path fill-rule="evenodd" clip-rule="evenodd" d="M22.8267 43.3535V40.6714C22.8267 40.1449 23.2575 39.7141 23.7839 39.7141H30.1603C30.6868 39.7141 31.1176 40.1449 31.1177 40.6714V43.3535H22.8267Z" fill="#2A93FC"/>
<path fill-rule="evenodd" clip-rule="evenodd" d="M22.8267 43.3535V40.6714C22.8267 40.1451 23.2571 39.7145 23.7832 39.7141H28.8055C29.332 39.7141 29.7628 40.1449 29.7628 40.6715V43.3536H22.8267V43.3535Z" fill="#4EB1FC"/>
</svg>
