<svg width="44" height="44" viewBox="0 0 44 44" fill="none" xmlns="http://www.w3.org/2000/svg">
<g clip-path="url(#clip0_4571_51452)">
<path d="M27.9339 36.6257V38.0669C27.9339 41.3437 25.2767 44 21.9999 44C18.7231 44 16.0659 41.3437 16.0659 38.0669V36.6257H27.9339Z" fill="#29BFFD"/>
<path d="M27.934 36.6257V38.0669C27.934 41.3437 25.2768 44 22 44V36.6257H27.934Z" fill="#0059AC"/>
<path d="M36.8336 14.8337C36.8336 18.4551 35.5359 21.7731 33.3806 24.3478C31.5562 26.5272 30.5756 29.2901 30.5756 32.1329L21.9999 33.336L13.4242 32.1329C13.4242 29.2901 12.4437 26.5263 10.6192 24.347C8.46392 21.7714 7.16626 18.4551 7.16626 14.8345C7.1654 6.63695 13.7663 0.0189063 21.9638 0H21.9999C30.1932 0 36.8336 6.64125 36.8336 14.8337Z" fill="#FFE420"/>
<path d="M36.8337 14.8337C36.8337 18.4551 35.536 21.7731 33.3807 24.3478C31.5562 26.5272 30.5757 29.2901 30.5757 32.1329L22 33.336V0C30.1933 0 36.8337 6.64125 36.8337 14.8337Z" fill="#FDAD00"/>
<path d="M13.4243 32.1328H30.5757V38.0668H13.4243V32.1328Z" fill="#29BFFD"/>
<path d="M22 32.1328H30.5757V38.0668H22V32.1328Z" fill="#0059AC"/>
<path d="M29.2111 14.5905L28.4583 12.2736L24.8377 11.7476L23.2178 8.46655H20.7823L19.1624 11.7476L15.5419 12.2736L14.7891 14.5905L17.4093 17.1445L16.7905 20.7505L18.7611 22.183L22.0001 20.4798L25.2391 22.183L27.2096 20.7505L26.5909 17.1445L29.2111 14.5905Z" fill="#FDAD00"/>
<path d="M26.5908 17.1445L27.2095 20.7505L25.239 22.183L22 20.4798V8.46655H23.2177L24.8377 11.7476L28.4582 12.2736L29.211 14.5905L26.5908 17.1445Z" fill="#FD9126"/>
<path d="M0 13.9233H3.96576V16.5015H0V13.9233Z" fill="#FFE420"/>
<path d="M1.59253 7.03931L2.65729 4.69063L6.23283 6.3116L5.16807 8.66027L1.59253 7.03931Z" fill="#FFE420"/>
<path d="M1.58472 23.3928L5.16026 21.7719L6.22502 24.1205L2.64948 25.7415L1.58472 23.3928Z" fill="#FFE420"/>
<path d="M40.0342 13.9233H43.9999V16.5015H40.0342V13.9233Z" fill="#FDAD00"/>
<path d="M37.7834 6.33228L41.359 4.71131L42.4238 7.05998L38.8482 8.68095L37.7834 6.33228Z" fill="#FDAD00"/>
<path d="M37.7649 24.0837L38.8297 21.7351L42.4052 23.356L41.3404 25.7047L37.7649 24.0837Z" fill="#FDAD00"/>
</g>
<defs>
<clipPath id="clip0_4571_51452">
<rect width="44" height="44" fill="white"/>
</clipPath>
</defs>
</svg>
