<svg width="44" height="39" viewBox="0 0 44 39" fill="none" xmlns="http://www.w3.org/2000/svg">
<path d="M17.5784 0C17.9529 0 18.2525 0.0749078 18.6271 0.224723L32.7097 6.21735C34.3577 6.96643 35.5562 8.53949 35.5562 10.4871C35.5562 17.9779 32.485 31.5362 19.6009 37.7535C18.9267 38.0532 18.2525 38.203 17.5784 38.203V0Z" fill="#0059AC"/>
<path d="M17.9778 0C17.6032 0 17.3036 0.0749078 16.9291 0.224723L2.84641 6.21735C1.19843 6.96643 -8.96454e-05 8.53949 -8.96454e-05 10.4871C-8.96454e-05 17.9779 3.07113 31.5362 15.9553 37.7535C16.6294 38.0532 17.3036 38.203 17.9778 38.203V0Z" fill="#29BFFD"/>
<mask id="mask0_4571_51418" style="mask-type:alpha" maskUnits="userSpaceOnUse" x="20" y="21" width="24" height="18">
<rect x="20.5627" y="21.3857" width="23.4374" height="16.741" fill="#FFE420"/>
</mask>
<g mask="url(#mask0_4571_51418)">
<path d="M28.0962 18.8745V21.3856H36.4667V18.8745C36.4667 16.5726 34.5833 14.6893 32.2814 14.6893C29.9272 14.6893 28.0962 16.5726 28.0962 18.8745ZM24.748 21.3856V18.8745C24.748 14.7416 28.0962 11.3411 32.2814 11.3411C36.4143 11.3411 39.8149 14.7416 39.8149 18.8745V21.3856H40.6519C42.4829 21.3856 44.0001 22.9028 44.0001 24.7338V34.7784C44.0001 36.6618 42.4829 38.1266 40.6519 38.1266H23.9109C22.0276 38.1266 20.5627 36.6618 20.5627 34.7784V24.7338C20.5627 22.9028 22.0276 21.3856 23.9109 21.3856H24.748Z" fill="#FFE420"/>
</g>
<mask id="mask1_4571_51418" style="mask-type:alpha" maskUnits="userSpaceOnUse" x="20" y="9" width="24" height="13">
<rect x="20.5627" y="9.85303" width="23.4374" height="11.5327" fill="#FFE420"/>
</mask>
<g mask="url(#mask1_4571_51418)">
<path d="M28.0962 18.8745V21.3856H36.4667V18.8745C36.4667 16.5726 34.5833 14.6893 32.2814 14.6893C29.9272 14.6893 28.0962 16.5726 28.0962 18.8745ZM24.748 21.3856V18.8745C24.748 14.7416 28.0962 11.3411 32.2814 11.3411C36.4143 11.3411 39.8149 14.7416 39.8149 18.8745V21.3856H40.6519C42.4829 21.3856 44.0001 22.9028 44.0001 24.7338V34.7784C44.0001 36.6618 42.4829 38.1266 40.6519 38.1266H23.9109C22.0276 38.1266 20.5627 36.6618 20.5627 34.7784V24.7338C20.5627 22.9028 22.0276 21.3856 23.9109 21.3856H24.748Z" fill="#FDAD00"/>
</g>
<path d="M6.85421 0C7.81809 0 8.67487 0.56226 9.10325 1.39226C9.9868 1.09775 11.0042 1.31194 11.7004 2.00807C12.3965 2.7042 12.6107 3.72162 12.3162 4.60518C13.1462 5.03356 13.7084 5.89034 13.7084 6.85421C13.7084 7.84486 13.1462 8.70164 12.3162 9.13003C12.6107 10.0136 12.3965 11.0042 11.7004 11.7004C11.0042 12.3965 9.9868 12.6107 9.10325 12.3429C8.67487 13.1729 7.81809 13.7084 6.85421 13.7084C5.86357 13.7084 5.00679 13.1729 4.5784 12.3429C3.69485 12.6107 2.7042 12.3965 2.00807 11.7004C1.31194 11.0042 1.09775 10.0136 1.36549 9.13003C0.535486 8.70164 0 7.84486 0 6.85421C0 5.89034 0.535486 5.03356 1.36549 4.60518C1.09775 3.72162 1.31194 2.7042 2.00807 2.00807C2.7042 1.31194 3.69485 1.09775 4.5784 1.39226C5.00679 0.56226 5.86357 0 6.85421 0ZM9.87971 5.59582C10.1207 5.35486 10.1207 4.95324 9.87971 4.71227C9.61197 4.44453 9.21035 4.44453 8.96938 4.71227L5.99744 7.68422L4.73905 6.42583C4.4713 6.15808 4.06969 6.15808 3.82872 6.42583C3.56098 6.66679 3.56098 7.06841 3.82872 7.30938L5.54227 9.02293C5.78324 9.29067 6.18486 9.29067 6.4526 9.02293L9.87971 5.59582Z" fill="#FFE420"/>
</svg>
