<svg width="36" height="37" viewBox="0 0 36 37" fill="none" xmlns="http://www.w3.org/2000/svg">
<path fill-rule="evenodd" clip-rule="evenodd" d="M6.51883 14.142C6.53423 14.2296 6.563 14.3164 6.60559 14.3999L7.93879 17.0165C7.50504 17.7894 7.15867 18.618 6.91324 19.489L4.12197 20.3959C3.74683 20.5178 3.50342 20.8528 3.50342 21.2473V23.9194C3.50342 24.3138 3.74683 24.6489 4.12197 24.7707L6.91324 25.6777C7.1585 26.5487 7.50504 27.3771 7.93879 28.1501L6.60559 30.7667C6.42651 31.1182 6.49128 31.5272 6.77024 31.8061L8.65969 33.6955C8.93856 33.9744 9.34759 34.0392 9.69906 33.8602L12.3156 32.527C13.0886 32.9607 13.9172 33.3071 14.7881 33.5525L15.695 36.3438C15.8169 36.7189 16.1519 36.9623 16.5464 36.9623H19.2185C19.613 36.9623 19.9481 36.7188 20.0699 36.3438L20.9769 33.5525C21.8479 33.3073 22.6763 32.9607 23.4493 32.527L26.0659 33.8602C26.4174 34.0392 26.8264 33.9745 27.1053 33.6955L28.9947 31.8061C29.2736 31.5271 29.3385 31.1181 29.1594 30.7667L27.8262 28.1501C28.2599 27.3771 28.6063 26.5486 28.8517 25.6777L31.643 24.7707C32.0181 24.6489 32.2616 24.3138 32.2616 23.9194V21.2473C32.2616 20.8529 32.0181 20.5179 31.643 20.3959L28.8517 19.489C28.6065 18.6179 28.2599 17.7895 27.8262 17.0165L29.1594 14.3999C29.2174 14.2861 29.2498 14.1664 29.2576 14.0469L24.4351 16.217C26.0341 17.8625 27.0192 20.1077 27.0192 22.5833C27.0192 27.6294 22.9285 31.7201 17.8824 31.7201C12.8363 31.7201 8.74567 27.6294 8.74567 22.5833C8.74567 20.2584 9.61458 18.1367 11.0447 16.524L6.51883 14.142Z" fill="#FFE420"/>
<path fill-rule="evenodd" clip-rule="evenodd" d="M11.9779 20.2906C11.9055 20.1855 11.828 20.0925 11.7416 20.0183C8.67432 17.3819 7.61506 16.3246 4.15684 14.6832C2.18836 13.7488 -0.340228 13.0722 0.0379081 11.1818C0.0880681 10.931 0.322588 10.6717 0.562036 10.7616L4.18218 12.1213C4.7856 11.0069 6.2464 11.5171 6.2464 12.8444C6.2464 12.9224 6.24076 12.9987 6.22994 13.0729L12.1428 15.779C13.7705 16.0116 15.8086 16.1856 17.8823 16.2503C19.9561 16.1856 21.9941 16.0116 23.6217 15.779L29.5346 13.0729C29.4188 12.2753 29.9278 11.5087 30.6396 11.5087C31.0351 11.5087 31.3829 11.7527 31.5825 12.1213L35.2026 10.7616C35.4421 10.6717 35.6766 10.931 35.7267 11.1818C36.1049 13.0722 33.5763 13.7489 31.6078 14.6832C28.1496 16.3246 27.0903 17.3819 24.0231 20.0183C23.9368 20.0925 23.8592 20.1855 23.7867 20.2906L22.4575 21.5459V30.4935C19.6107 32.1436 16.1539 32.1436 13.3071 30.4935V21.5459L11.9779 20.2906Z" fill="#29BFFD"/>
<path fill-rule="evenodd" clip-rule="evenodd" d="M7.91338 1.88796L8.53651 3.81842C8.61492 4.06121 8.83184 4.21891 9.08695 4.21838L11.1154 4.21451C11.5122 4.21371 11.6778 4.7235 11.3564 4.95608L9.71298 6.14531C9.50627 6.29491 9.42337 6.54994 9.50275 6.79247L10.1334 8.72055C10.2562 9.09622 9.82192 9.41179 9.50248 9.17885L7.86366 7.98337C7.65756 7.83298 7.38934 7.83298 7.18324 7.98337L5.54442 9.17885C5.22507 9.41179 4.7907 9.09622 4.91355 8.72055L5.54416 6.79247C5.62344 6.54994 5.54064 6.29491 5.33384 6.14531L3.69053 4.95608C3.36906 4.7235 3.53468 4.21371 3.93147 4.21451L5.96004 4.21838C6.21516 4.21891 6.43216 4.06121 6.51048 3.81842L7.13361 1.88796C7.25567 1.51 7.79141 1.51 7.91338 1.88796Z" fill="#67BC47"/>
<path fill-rule="evenodd" clip-rule="evenodd" d="M30.2383 2.73315C31.3463 2.73315 32.2445 3.63137 32.2445 4.73938C32.2445 6.4259 30.6046 8.32987 29.0886 9.16393C28.8584 9.29056 28.6007 9.29056 28.3705 9.16393C26.8545 8.32987 25.2146 6.4259 25.2146 4.73938C25.2146 3.63137 26.1128 2.73315 27.2208 2.73315C27.8224 2.73315 28.3619 2.99795 28.7296 3.41727C29.0972 2.99795 29.6368 2.73315 30.2383 2.73315Z" fill="#F470F0"/>
<path fill-rule="evenodd" clip-rule="evenodd" d="M20.579 3.70371L16.1615 6.20388C15.6102 6.51593 14.8352 6.21039 14.8352 5.6647V0.664366C14.8352 0.11859 15.6103 -0.186858 16.1615 0.12519L20.579 2.62536C21.0482 2.89094 21.0482 3.43813 20.579 3.70371Z" fill="#FDAD00"/>
<path fill-rule="evenodd" clip-rule="evenodd" d="M17.8823 9.17651C19.8991 9.17651 21.5342 10.8114 21.5342 12.8282C21.5342 14.8451 19.8991 16.4801 17.8823 16.4801C15.8654 16.4801 14.2305 14.845 14.2305 12.8282C14.2306 10.8114 15.8655 9.17651 17.8823 9.17651Z" fill="#FFB647"/>
</svg>
